<?xml version="1.0" encoding="UTF-8"?>
<svg id="Layer_1" xmlns="http://www.w3.org/2000/svg" viewBox="0 0 76.93 73.48">
  <defs>
    <style>
      .cls-1 {
        fill: #e2e8f0;
      }

      .cls-2 {
        fill: #facc15;
      }
    </style>
  </defs>
  <path class="cls-2" d="M38.48,0s-.02,0-.02,0c-.65,0-1.29.18-1.85.53-.55.35-1,.84-1.29,1.42l-9.99,20.23-22.33,3.24-.4.08c-.6.16-1.14.47-1.58.91-.44.44-.75.99-.91,1.59-.16.6-.15,1.23.02,1.83.17.6.49,1.14.93,1.57l16.18,15.75-3.82,22.24-.05.39c-.04.62.09,1.24.37,1.79.28.55.7,1.02,1.22,1.36.52.34,1.12.53,1.74.56.62.03,1.24-.11,1.78-.4l19.97-10.5h0S38.48,0,38.48,0Z"/>
  <path class="cls-1" d="M76.69,27.61c-.23-.58-.6-1.08-1.08-1.47s-1.06-.63-1.67-.72l-22.33-3.24L41.62,1.95c-.29-.59-.74-1.08-1.29-1.42-.55-.35-1.2-.53-1.85-.53,0,0,0,0,0,0v62.58h.02s19.93,10.49,19.93,10.49l.35.16c.58.23,1.21.3,1.82.2.61-.1,1.19-.35,1.67-.74.48-.39.85-.9,1.07-1.49s.28-1.21.17-1.82l-3.82-22.24,16.18-15.75.27-.3c.39-.48.65-1.06.74-1.67.1-.61.03-1.24-.2-1.81Z"/>
</svg>